<svg xmlns="http://www.w3.org/2000/svg" version="1.1" xmlns:xlink="http://www.w3.org/1999/xlink" xmlns:svgjs="http://svgjs.dev/svgjs" width="1500" height="1500" viewBox="0 0 1500 1500"><rect width="1500" height="1500" fill="#ffffff"></rect><g transform="matrix(0.6666666666666666,0,0,0.6666666666666666,249.39405264669892,592.6259290884916)"><svg viewBox="0 0 396 127" data-background-color="#ffffff" preserveAspectRatio="xMidYMid meet" height="481" width="1500" xmlns="http://www.w3.org/2000/svg" xmlns:xlink="http://www.w3.org/1999/xlink"><g id="tight-bounds" transform="matrix(1,0,0,1,0.24004484809285032,0.4266466341769899)"><svg viewBox="0 0 395.52 126.38455715376939" height="126.38455715376939" width="395.52"><g><svg viewBox="0 0 616.8509105822317 197.108690240278" height="126.38455715376939" width="395.52"><g transform="matrix(1,0,0,1,221.33091058223167,47.25014355628149)"><svg viewBox="0 0 395.52 102.60840312771502" height="102.60840312771502" width="395.52"><g id="textblocktransform"><svg viewBox="0 0 395.52 102.60840312771502" height="102.60840312771502" width="395.52" id="textblock"><g><svg viewBox="0 0 395.52 102.60840312771502" height="102.60840312771502" width="395.52"><g transform="matrix(1,0,0,1,0,0)"><svg width="395.52" viewBox="3.91 -35.86 140.49 36.45" height="102.60840312771502" data-palette-color="#000000"><g class="wordmark-text-0" data-fill-palette-color="primary" id="text-0"><path d="M26.29-21.04L26.29-31.1Q26.29-31.81 26.54-32.18L26.54-32.18Q27.64-33.79 29.61-35.57L29.61-35.57Q29.98-35.86 30.25-35.86L30.25-35.86Q30.54-35.86 30.86-35.57L30.86-35.57Q31.93-34.64 32.67-33.8 33.4-32.96 33.94-32.18L33.94-32.18Q34.18-31.79 34.18-31.1L34.18-31.1 34.18-1.29Q34.18-0.56 33.87-0.28 33.57 0 32.84 0L32.84 0 27.64 0Q26.9 0 26.6-0.28 26.29-0.56 26.29-1.29L26.29-1.29 26.29-14.26 11.79-14.26 11.79-1.29Q11.79-0.56 11.49-0.28 11.18 0 10.45 0L10.45 0 5.25 0Q4.52 0 4.21-0.28 3.91-0.56 3.91-1.29L3.91-1.29 3.91-33.72Q3.91-34.45 4.21-34.73 4.52-35.01 5.25-35.01L5.25-35.01 10.45-35.01Q11.18-35.01 11.49-34.73 11.79-34.45 11.79-33.72L11.79-33.72 11.79-21.04 26.29-21.04ZM49.88-25.93L49.88-1.29Q49.88-0.56 49.57-0.28 49.27 0 48.53 0L48.53 0 43.33 0Q42.6 0 42.29-0.28 41.99-0.56 41.99-1.29L41.99-1.29 41.99-28.47Q41.99-30.91 42.44-32.34 42.89-33.76 44.2-34.39 45.51-35.01 48.02-35.01L48.02-35.01 54.49-35.01Q67.23-35.01 67.23-25.22L67.23-25.22Q67.23-22.24 66.23-20.34 65.23-18.43 63.74-17.37 62.25-16.31 60.81-15.77L60.81-15.77 60.81-15.65Q62.45-14.58 63.93-12.83 65.4-11.08 66.6-9.05 67.8-7.01 68.63-5.02 69.46-3.03 69.77-1.46L69.77-1.46Q69.92-0.73 69.79-0.37 69.65 0 68.94 0L68.94 0 63.3 0Q62.67 0 62.19-0.27 61.72-0.54 61.33-1.51L61.33-1.51Q59.47-6.18 57.05-9.12 54.64-12.06 52.39-13.84L52.39-13.84Q50.95-14.99 50.95-15.48L50.95-15.48Q50.95-15.87 51.41-16.55L51.41-16.55Q51.71-16.97 52.27-17.55 52.83-18.14 53.24-18.43L53.24-18.43Q53.66-18.73 53.92-18.8 54.17-18.87 54.71-18.87L54.71-18.87Q56.52-18.87 57.72-20.12 58.93-21.36 58.93-24.05L58.93-24.05Q58.93-26.59 57.65-27.77 56.37-28.96 54.12-28.96L54.12-28.96 52.66-28.96Q51.05-28.96 50.46-28.27 49.88-27.59 49.88-25.93L49.88-25.93ZM94.23-14.01L94.43-14.01Q94.77-15.33 95.17-16.61 95.58-17.9 96.16-19.48L96.16-19.48Q96.67-20.9 97.41-22.74 98.14-24.58 98.96-26.49 99.78-28.39 100.56-30.03 101.34-31.67 101.97-32.64L101.97-32.64Q102.75-33.84 103.67-34.42 104.58-35.01 106.37-35.01L106.37-35.01 109.57-35.01Q110.83-35.01 111.7-34.63 112.57-34.25 112.93-32.84L112.93-32.84Q113.2-31.79 113.45-29.76 113.69-27.73 113.86-24.15 114.03-20.56 114.13-14.93 114.23-9.3 114.23-1.03L114.23-1.03Q114.23-0.59 113.94-0.29 113.64 0 113.23 0L113.23 0 107.66 0Q107.25 0 106.95-0.29 106.66-0.59 106.66-1.05L106.66-1.05Q106.66-7.5 106.66-11.99 106.66-16.48 106.64-19.43 106.61-22.39 106.57-24.13 106.54-25.88 106.46-26.83L106.46-26.83 106.32-26.83Q105.02-23.85 103.56-20.2 102.09-16.55 100.7-12.68 99.31-8.81 98.21-5.13L98.21-5.13Q97.9-4.03 97.42-3.6 96.94-3.17 95.26-3.17L95.26-3.17 92.45-3.17Q91.01-3.17 90.53-3.54 90.06-3.91 89.72-5.13L89.72-5.13Q88.91-7.91 87.93-11.01 86.96-14.11 85.92-17.1 84.88-20.09 83.92-22.62 82.95-25.15 82.2-26.83L82.2-26.83 82.05-26.83Q81.86-23.95 81.71-19.82 81.56-15.7 81.48-10.86 81.39-6.03 81.37-1L81.37-1Q81.37-0.56 81.07-0.28 80.78 0 80.37 0L80.37 0 75.36 0Q74.95 0 74.65-0.29 74.36-0.59 74.36-1.05L74.36-1.05Q74.38-14.06 74.89-21.83 75.39-29.59 75.97-32.23L75.97-32.23Q76.36-33.96 77.35-34.48 78.34-35.01 79.61-35.01L79.61-35.01 83.56-35.01Q84.91-35.01 85.53-34.53 86.15-34.06 87.06-32.69L87.06-32.69Q87.59-31.88 88.34-30.27 89.08-28.66 89.89-26.7 90.69-24.73 91.41-22.81 92.13-20.9 92.6-19.48L92.6-19.48Q93.09-18.04 93.5-16.69 93.92-15.33 94.23-14.01L94.23-14.01ZM131.27 0.59L131.27 0.59Q128.17 0.59 126.13 0.02 124.09-0.54 122.86-1.38 121.62-2.22 120.96-3.05L120.96-3.05Q120.74-3.37 120.57-3.66 120.4-3.96 120.33-4.32L120.33-4.32Q120.23-4.81 120.13-5.6 120.04-6.4 120.11-7.45L120.11-7.45Q120.13-7.89 120.28-8.06L120.28-8.06Q120.45-8.25 120.84-8.35L120.84-8.35Q121.55-8.52 122.69-8.65 123.82-8.79 124.31-8.79L124.31-8.79Q124.82-8.79 125.14-8.59 125.46-8.4 125.9-7.93L125.9-7.93Q126.38-7.42 127.58-6.63 128.78-5.83 131.27-5.83L131.27-5.83Q133.66-5.83 134.88-6.84 136.1-7.84 136.1-9.62L136.1-9.62Q136.1-10.57 135.53-11.41 134.95-12.26 133.44-13.1 131.93-13.94 129.12-14.87L129.12-14.87Q124.48-16.43 122.43-18.75 120.38-21.07 120.38-25.2L120.38-25.2Q120.38-28.61 122.04-30.91 123.7-33.2 126.63-34.38 129.56-35.55 133.39-35.55L133.39-35.55Q136.35-35.55 138.29-34.85 140.23-34.16 141.3-33.29 142.38-32.42 142.69-31.88L142.69-31.88Q142.89-31.57 142.95-31.41 143.01-31.25 143.03-30.98L143.03-30.98Q143.11-30.22 143.08-29.3 143.06-28.37 142.91-27.2L142.91-27.2Q142.84-26.81 142.64-26.66L142.64-26.66Q142.47-26.54 142.11-26.54L142.11-26.54Q139.74-26.49 138.44-26.78L138.44-26.78Q137.93-26.9 137.76-27.03 137.59-27.15 137.32-27.42L137.32-27.42Q136.93-27.88 136.09-28.5 135.25-29.13 133.39-29.13L133.39-29.13Q130.83-29.13 129.75-27.97 128.68-26.81 128.68-25.37L128.68-25.37Q128.68-23.66 130.27-22.69 131.85-21.73 135.27-20.51L135.27-20.51Q138.13-19.51 140.18-18.33 142.23-17.16 143.32-15.33 144.4-13.5 144.4-10.5L144.4-10.5Q144.4-6.76 142.68-4.3 140.96-1.83 137.99-0.62 135.03 0.59 131.27 0.59Z" fill="#000000" data-fill-palette-color="primary"></path></g></svg></g></svg></g></svg></g></svg></g><g><svg viewBox="0 0 197.1075292054532 197.108690240278" height="197.108690240278" width="197.1075292054532"><g><svg xmlns="http://www.w3.org/2000/svg" data-name="Layer 1" viewBox="5.000042208164654 4.9997600111804985 89.99994985647785 90.0004799888195" x="0" y="0" height="197.108690240278" width="197.1075292054532" class="icon-icon-0" data-fill-palette-color="accent" id="icon-0"><path d="M15.577 28.777H26.632A8.047 8.047 0 0 1 34.607 35.707l2.542 18.249c0.358 2.58-0.904 5.292-3.502 5.169a3.003 3.003 0 0 1-2.91-2.956l-0.938 35.814a3.099 3.099 0 0 1-3.097 3.017H15.507a3.099 3.099 0 0 1-3.097-3.017L11.472 56.169a3.003 3.003 0 0 1-2.91 2.956c-2.599 0.122-3.861-2.589-3.502-5.169L7.602 35.707A8.047 8.047 0 0 1 15.577 28.777ZM30.364 19.515a9.26 9.26 0 1 0-9.259 9.26A9.26 9.26 0 0 0 30.364 19.515ZM93.626 55.079a0.969 0.969 0 0 0 0.962-0.829 43.949 43.949 0 0 0 0-12.001 0.969 0.969 0 0 0-0.962-0.828H82.298A31.54 31.54 0 0 0 78.178 31.485l8.013-8.013a0.969 0.969 0 0 0 0.094-1.265 43.247 43.247 0 0 0-8.492-8.492 0.969 0.969 0 0 0-1.265 0.094L68.515 21.822a31.544 31.544 0 0 0-9.936-4.121V6.374a0.969 0.969 0 0 0-0.829-0.963 43.942 43.942 0 0 0-12 0 0.969 0.969 0 0 0-0.829 0.963V17.701a31.53 31.53 0 0 0-9.744 4.01 14.132 14.132 0 0 1-1.369 4.249 13.051 13.051 0 0 1 5.752 9.055l0.157 1.128a17.085 17.085 0 1 1 0.56 24.723c-0.125 0.167-0.244 0.338-0.38 0.495A7.953 7.953 0 0 1 35.535 63.95l-0.285 10.88a31.523 31.523 0 0 0 9.671 3.968V90.125a0.969 0.969 0 0 0 0.829 0.963 43.941 43.941 0 0 0 12 0 0.969 0.969 0 0 0 0.829-0.963V78.798A31.544 31.544 0 0 0 68.515 74.678l8.013 8.013a0.969 0.969 0 0 0 1.265 0.094 43.247 43.247 0 0 0 8.492-8.493 0.969 0.969 0 0 0-0.094-1.264L78.178 65.015a31.54 31.54 0 0 0 4.12-9.936Z" fill="#000000" data-fill-palette-color="accent"></path></svg></g></svg></g></svg></g><defs></defs></svg><rect width="395.52" height="126.38455715376939" fill="none" stroke="none" visibility="hidden"></rect></g></svg></g></svg>